PathFileType	4	(X/Y/Z)	/home/abdul/Desktop/myosuite/custom_workspace/IK/output/S14_12_1.trc
DataRate	CameraRate	NumFrames	NumMarkers	Units	OrigDataRate	OrigDataStartFrame	OrigNumFrames
200.0	200.0	39	3	mm	200.0	1276	2040
Frame#	Time	V_Shoulder			V_Elbow			V_Wrist		
		X1	Y1	Z1	X2	Y2	Z2	X3	Y3	Z3

1276	6.375	-165.77581171033663	719.7610502300663	316.86621791680665	-239.8709935111199	462.278638844067	117.7152589385343	-121.73136956852538	536.1026093347109	315.7487867793209
1277	6.38	-165.77175532248603	719.7530507321309	316.8686849367958	-239.94969841053197	462.44292022504396	117.49922609638541	-121.68143205633348	535.8013943182896	315.6354077114937
1278	6.385	-165.76892252601115	719.7434440119528	316.8694334606127	-240.02415818443848	462.6120160410443	117.2717752549251	-121.62846961434107	535.4769660137341	315.5192305639851
1279	6.39	-165.7673285549379	719.732144046984	316.86846504731886	-240.09428954659145	462.7856573742822	117.03316563757186	-121.57231411686163	535.128554873954	315.4003791901275
1280	6.395	-165.76698747587906	719.7190638820889	316.8657823638036	-240.16001014827356	462.9635733324027	116.78365845781924	-121.51279693826393	534.7554062350001	315.2789603256201
1281	6.4	-165.7679121514265	719.7041157502304	316.8613891738408	-240.22123869595686	463.1454914871591	116.52351637105087	-121.44974944478062	534.3567819879752	315.15506300743505
1282	6.405	-165.7701142050531	719.6872111963044	316.8552903260251	-240.27789507160475	463.3311383100719	116.25300293888	-121.38300349171246	533.9319622342587	315.0287580533124
1283	6.41	-165.7736039875947	719.6682612039191	316.84749174063523	-240.32990045518204	463.5202396040629	115.9723821075112	-121.31239192385141	533.480246919722	314.9000976037339
1284	6.415	-165.7783905453799	719.6471763249034	316.83800039547083	-240.3771774489265	463.71252093008786	115.68191770155367	-121.23774907692997	533.000957443611	314.7691147280417
1285	6.42	-165.7844815900738	719.6238668113234	316.8268243107113	-240.4196502029214	463.90770802781003	115.38187293464455	-121.15891127790232	532.4934382377851	314.63582309614424
1286	6.425	-165.79188347029879	719.598242749776	316.8139725328469	-240.45724454150474	464.105527229395	115.07250993816369	-121.07571734187174	531.9570583120251	314.5002167170218
1287	6.43	-165.8006011450914	719.5702141977262	316.7994551177314	-240.4898880900413	464.30570586553085	114.7540893092422	-120.98800906350237	531.3912127611628	314.3622697450076
1288	6.435	-165.81063815925282	719.5396913216437	316.7832831128082	-240.51751040158393	464.50797266281916	114.4268696791822	-120.89563170078736	530.795324229832	314.22193635458376
1289	6.44	-165.82199662064696	719.50658453669	316.76546853855945	-240.54004308294907	464.7120581317166	114.0911073033187	-120.79843444909267	530.1688443307085	314.07915068419084
1290	6.445	-165.8346771794955	719.4708046477045	316.7460243692319	-240.55741991973443	464.91769494424636	113.74705567326384	-120.6962709034548	529.5112550121835	313.93382684930737
1291	6.45	-165.84867900971847	719.4322629912276	316.72496451288924	-240.56957699981118	465.1246183007423	113.39496515238116	-120.58899950718003	528.8220698715068	313.7858590248133
1292	6.455	-165.86399979236253	719.3908715783003	316.7023037908437	-240.57645283483205	465.33256628493046	113.03508263524138	-120.47648398487297	528.1008354095408	313.6351215964079
1293	6.46	-165.88063570115798	719.3465432377731	316.6780579165182	-240.5779884793054	465.5412802066998	112.66765123171558	-120.35859375811395	527.3471322233893	313.4814693806102
1294	6.465	-165.89858139024025	719.2991917598541	316.6522434737899	-240.57412764679825	465.75050493196085	112.29290997626134	-120.2352043421034	526.5605761332919	313.3247379126297
1295	6.47	-165.91782998406865	719.2487320396241	316.6248778948656	-240.5648168228462	465.9599891990392	111.91109356285804	-120.10619772170061	525.740819240327	313.1647438011572
1296	6.475	-165.93837306957133	719.195080220245	316.59597943773923	-240.55000537416402	466.1694859211017	111.5224321059469	-119.97146270540145	524.887550911624	313.0012851488889
1297	6.48	-165.96020069054094	719.1381538355854	316.56556716328106	-240.52964565377005	466.37875247416423	111.1271509276298	-119.83089525592237	524.0004986899551	312.83414203736737
1298	6.485	-165.9833013443027	719.077871951989	316.53366091200644	-240.50369310165863	466.58755097028154	110.72547037127956	-119.68439879618887	523.0794291247706	312.66307707449596
1299	6.49	-166.00766198067106	719.0141553089067	316.5002812805715	-240.47210634067494	466.7956485155719	110.3176056416136	-119.53188448966188	522.1241485219291	312.4878360028607
1300	6.495	-166.03326800320815	718.9469264581189	316.4654495980431	-240.43484726727254	467.00281745278306	109.9037666711826	-119.37327149407511	521.1345036095911	312.3081483667818
1301	6.5	-166.06010327279387	718.8761099012748	316.4291879019868	-240.39188113685793	467.2088355881592	109.48415801312598	-119.20848718780083	520.1103821179616	312.1237282358062
1302	6.505	-166.08815011351103	718.8016322254722	316.39151891441696	-240.34317664345247	467.41348640242086	109.05897875994916	-119.03746736820656	519.0517132708014	311.9342749821567
1303	6.51	-166.11738932084745	718.7234222366125	316.3524660176514	-240.28870599342974	467.6165592457239	108.62842248798086	-118.86015642151375	517.9584681868618	311.73947410945664
1304	6.515	-166.14780017221076	718.64141109026	316.3120532301116	-240.2284449731139	467.81784951651616	108.19267722707542	-118.67650746381764	516.8306601896559	311.5389981298721
1305	6.52	-166.17936043974927	718.5555324197435	316.27030518210637	-240.16237301005344	468.0171588242621	107.75192545503316	-118.48648245307638	515.6683450242324	311.3325074866374
1306	6.525	-166.2120464054664	718.4657224612411	316.2272470916376	-240.09047322781348	468.2142951360568	107.30634411612384	-118.29005227202381	514.4716209798871	311.1196515187711
1307	6.53	-166.24583287861324	718.3719201755944	316.18290474026344	-240.01273249415868	468.4090729072028	106.85610466301276	-118.08719678210664	513.2406289180155	310.90006946463774
1308	6.535	-166.28069321533948	718.274067366603	316.13730444905195	-239.9291414625279	468.6013131958697	106.40137312130668	-117.87790484868808	511.9755522045957	310.6733915008706
1309	6.54	-166.31659934057802	718.172108795556	316.09047305465907	-239.8396946067304	468.79084376200603	105.94231017585923	-117.66217433789882	510.6766165470648	310.439239813048
1310	6.545	-166.35352177213585	718.0659922917642	316.0424378855595	-239.74439024882287	468.977499150718	105.47907127790077	-117.44001208565035	509.34408973564734	310.19722969439925
1311	6.55	-166.39142964695893	717.9556688588664	315.9932267384588	-239.64323058015253	469.1611207603755	105.01180677198806	-117.21143383945397	507.9782812894763	309.9469706687185
1312	6.555	-166.4302907495343	717.8410927766845	315.94286785491494	-239.5362216755804	469.34155689574754	104.54066204170427	-116.97646417381148	506.57954200814163	309.68806763357736
1313	6.56	-166.47007154239063	717.7222216984192	315.8913898981899	-239.42337350092447	469.5186628065079	104.06577767297821	-116.73513638005912	505.1482634295922	309.4201220198566
1314	6.565	-166.51073719865283	717.5990167429769	315.8388219303577	-239.3046999136876	469.6923007114942	103.58728963383709	-116.48749233165508	503.6848771956047	309.14273296355964
